# xmcd CD database file
#
# Track frame offsets:
#	150
#	13334
#	32268
#	49060
#	68925
#	87427
#	103961
#	122848
#	141817
#	165770
#	187847
#	204731
#	219956
#	235817
#	258253
#	279520
#	296792
#	308965
#	322965
#	341725
#
# Disc length: 4786 seconds
#
# Revision: 1
# Processed by: cddbd v1.5.2PL0 Copyright (c) Steve Scherf et al.
# Submitted via: CDex 1.51
#
DISCID=2512b014
DTITLE=Various Artist - ZM-PB-2-CD-5
DYEAR=1900
DGENRE=Blues
TTITLE0=One Direction - One Way Or Another (teenage kicks)
TTITLE1=Maroon 5 Ft Wiz Khalifa - Payphone
TTITLE2=Bastille - Pompeli
TTITLE3=Rita Ora - Radioactive
TTITLE4=S Club 7 - Reach
TTITLE5=Bridget Mendler - Ready Or Not
TTITLE6=Rita Ora Ft Tinie Tempah - R I P (duet version)
TTITLE7=Take That - Rule The World
TTITLE8=Leona Lewis - Run
TTITLE9=Will.i.am Ft Britney Spears - Scream and Shout
TTITLE10=Take That - Shine
TTITLE11=Kelly Clarkson - Since U Been Gone
TTITLE12=Birdy - Skinny Love
TTITLE13=Adele - Skyfall
TTITLE14=Nirvana - Smells Like Teen Spirit
TTITLE15=Pink - So What
TTITLE16=Dusty Springfield - Son Of A Preacher Man
TTITLE17=Spice Girls - Spice Up Your Life
TTITLE18=Rihanna Ft Mikky Ekko - Stay
TTITLE19=Bryan Adams - Summer Of 69
EXTD=
EXTT0=
EXTT1=
EXTT2=
EXTT3=
EXTT4=
EXTT5=
EXTT6=
EXTT7=
EXTT8=
EXTT9=
EXTT10=
EXTT11=
EXTT12=
EXTT13=
EXTT14=
EXTT15=
EXTT16=
EXTT17=
EXTT18=
EXTT19=
PLAYORDER=
